<svg xmlns="http://www.w3.org/2000/svg" viewBox="0 0 620 700" role="img" aria-label="SMART MOTION BALL"><rect width="620" height="700" fill="#e5e9df"/><path d="M50 520Q310 410 570 520" fill="none" stroke="#cbd4c6" stroke-width="35"/><g transform="translate(0 15)"><circle cx="315" cy="355" r="115" fill="#94aa98" stroke="#27372f" stroke-width="8"/><path d="M250 355q65-100 130 0-65 100-130 0z" fill="#dbe4d8"/><circle cx="315" cy="355" r="16" fill="#27372f"/><path d="M125 420q55 50 100 8M425 245q55-35 88 22" fill="none" stroke="#809480" stroke-width="9" stroke-dasharray="12 14"/><path d="M110 275q15-100 115-65l20-58 40 62" fill="#b88e72"/><circle cx="190" cy="250" r="75" fill="#b88e72"/><path d="M140 205l15-70 50 60 45-55 15 80" fill="#b88e72"/><circle cx="168" cy="245" r="8"/><circle cx="218" cy="245" r="8"/></g><text x="34" y="650" font-family="Arial,sans-serif" font-size="14" letter-spacing="3" fill="#425047">SMART MOTION BALL</text><text x="34" y="675" font-family="Arial,sans-serif" font-size="10" letter-spacing="2" fill="#788079">ORIGINAL PRODUCT ARTWORK</text></svg>